<?xml version="1.0" encoding="UTF-8" standalone="no"?>
<!DOCTYPE svg PUBLIC "-//W3C//DTD SVG 1.1//EN" "http://www.w3.org/Graphics/SVG/1.1/DTD/svg11.dtd">
<svg width="100%" height="100%" viewBox="0 0 128 128" version="1.1" xmlns="http://www.w3.org/2000/svg" xmlns:xlink="http://www.w3.org/1999/xlink" xml:space="preserve" xmlns:serif="http://www.serif.com/" style="fill-rule:evenodd;clip-rule:evenodd;stroke-linecap:round;stroke-linejoin:round;stroke-miterlimit:1.5;">
    <g transform="matrix(1,0,0,1,-162.06,0)">
        <g id="ArtBoard1" transform="matrix(1,0,0,1,162.06,0)">
            <rect x="0" y="0" width="128" height="128" style="fill:none;"/>
            <g transform="matrix(1.01001,0,0,0.642191,-162.467,24.8169)">
                <path d="M281.198,29.448L281.198,100.889C281.198,114.373 274.237,125.321 265.664,125.321L185.467,125.321C176.893,125.321 169.932,114.373 169.932,100.889L169.932,29.448C169.932,15.963 176.893,5.016 185.467,5.016L265.664,5.016C274.237,5.016 281.198,15.963 281.198,29.448Z" style="fill:rgb(56,91,123);"/>
            </g>
            <g transform="matrix(1.07828,0,0,1.07828,-5.37822,-5.01017)">
                <g transform="matrix(1,0,0,1,-166.31,1.60511)">
                    <path d="M209.637,44.264L210.238,19.928L211.726,20.168L211.296,43.211L209.637,44.264Z" style="fill:rgb(95,107,122);stroke:white;stroke-width:4.64px;"/>
                </g>
                <g transform="matrix(1,0,0,1,-166.31,1.60511)">
                    <ellipse cx="224.73" cy="109.799" rx="7.194" ry="5.841" style="fill:rgb(255,0,90);stroke:white;stroke-width:4.64px;"/>
                </g>
                <g transform="matrix(1,0,0,1,-166.31,1.60511)">
                    <path d="M264.09,60.165L266.916,59.754L267.63,58.949L271.485,58.458L272.689,60.263L272.347,61.746L271.627,62.154L268.161,62.428L267.168,62.091L263.935,62.428L264.09,60.165Z" style="fill:rgb(111,147,186);stroke:white;stroke-width:4.64px;"/>
                </g>
                <g transform="matrix(1,0,0,1,-166.31,1.60511)">
                    <path d="M264.734,65.995L267.332,65.856L267.978,65.018L271.784,64.626L272.99,66.393L272.689,67.906L271.722,68.21L268.312,68.446L267.443,67.846L263.351,67.627L264.734,65.995Z" style="fill:rgb(111,147,186);stroke:white;stroke-width:4.64px;"/>
                </g>
                <g transform="matrix(1,0,0,1,-166.31,1.60511)">
                    <path d="M271.236,58.879L270.603,60.443L271.706,61.766L272.42,60.443L271.236,58.879" style="fill:rgb(95,107,122);stroke:white;stroke-width:4.64px;"/>
                </g>
                <g transform="matrix(1,0,0,1,-166.31,1.49377)">
                    <path d="M271.511,65.018L270.603,66.536L271.887,68.013L272.42,67.722L272.689,66.536L271.511,65.018Z" style="fill:rgb(95,107,122);stroke:white;stroke-width:4.64px;"/>
                </g>
                <g transform="matrix(1,0,0,1,-166.31,1.60511)">
                    <path d="M212.301,24.022L212.253,29.271L213.321,30.546L213.234,34.618L217.004,37.13L219.84,37.13L218.552,40.851L231.448,43.086L229.163,37.13L231.712,34.31L222.886,11.393L212.301,24.022Z" style="fill:rgb(95,107,122);stroke:white;stroke-width:4.64px;"/>
                </g>
                <g transform="matrix(1,0,0,1,-166.31,1.60511)">
                    <path d="M211.208,26.149L211.735,23.198L223.215,9.15L238.617,15.953L238.665,28.893L237.087,28.888L237.453,30.533L236.619,34.585L232.97,37.13L221.672,34.294L220.056,30.731L224.286,27.04L222.165,25.385L222.365,12.525L211.208,26.149Z" style="fill:rgb(179,193,208);stroke:white;stroke-width:4.64px;"/>
                </g>
                <g transform="matrix(1,0,0,1,-166.31,1.60511)">
                    <path d="M203.687,50L207.326,45.367L215.445,39.344L242.073,44.922L245.989,49.052L249.781,79.942L241.011,106.914L217.147,112.469L208.879,105.784L204.895,79.12L203.687,50Z" style="fill:rgb(179,193,208);stroke:white;stroke-width:4.64px;"/>
                </g>
                <g transform="matrix(1,0,0,1,-166.31,1.60511)">
                    <path d="M203.913,49.965L213.479,43.086L213.813,81.114L216.962,112.386L208.767,105.852L203.055,78.653L203.913,49.965" style="fill:rgb(161,177,195);stroke:white;stroke-width:4.64px;"/>
                </g>
                <g transform="matrix(1,0,0,1,-166.31,1.60511)">
                    <path d="M198.767,64L197.033,67.019L200.461,101.456L202.332,102.77L207.922,102.892L212.253,64.906L211.208,62.428L198.767,64Z" style="fill:rgb(179,193,208);stroke:white;stroke-width:4.64px;"/>
                </g>
                <g transform="matrix(1,0,0,1,-166.31,1.60511)">
                    <path d="M202.929,53.179L197.68,65.548L212.253,63.671L211.208,53.244L209.042,50.505L202.929,53.179Z" style="fill:rgb(132,142,155);stroke:white;stroke-width:4.64px;"/>
                </g>
                <g transform="matrix(1,0,0,1,-166.31,1.60511)">
                    <path d="M248.112,75.053L265.191,67.701L264.384,58.583L246.109,54.983L248.112,75.053Z" style="fill:rgb(179,193,208);stroke:white;stroke-width:4.64px;"/>
                </g>
                <g transform="matrix(1,0,0,1,-166.31,1.60511)">
                    <path d="M217.64,47.494L218.536,69.675L246.209,70.461L245.121,51.166L218.734,46.346L217.64,47.494Z" style="fill:rgb(132,142,155);stroke:white;stroke-width:4.64px;"/>
                </g>
                <g transform="matrix(1,0,0,1,-166.31,1.60511)">
                    <path d="M221.621,88.596L222.938,105.973L239.393,103.155L243.856,86.995L243.029,86.229L221.621,88.596Z" style="fill:rgb(132,142,155);stroke:white;stroke-width:4.64px;"/>
                </g>
                <g transform="matrix(1,0,0,1,-166.31,1.60511)">
                    <path d="M222.213,54.11L222.131,57.932L238.665,59.732L237.094,55.841L222.213,54.11Z" style="fill:rgb(255,0,90);stroke:white;stroke-width:4.64px;"/>
                </g>
                <g transform="matrix(1,0,0,1,-166.31,1.60511)">
                    <path d="M239.377,56.314L241.022,60.196L243.438,60.395L241.597,56.604L239.377,56.314Z" style="fill:rgb(255,0,90);stroke:white;stroke-width:4.64px;"/>
                </g>
                <g transform="matrix(0.743292,-0.279529,0.369453,0.982407,-113.86,66.2778)">
                    <ellipse cx="231.771" cy="19.032" rx="2.216" ry="1.97" style="fill:rgb(255,0,90);stroke:white;stroke-width:4.98px;"/>
                </g>
                <g transform="matrix(0.211442,-0.0795167,0.149594,0.397784,13.5918,31.1905)">
                    <ellipse cx="231.771" cy="19.032" rx="2.216" ry="1.97" style="fill:rgb(179,193,208);stroke:white;stroke-width:13.63px;"/>
                </g>
            </g>
            <g transform="matrix(1.07828,0,0,1.07828,-5.37822,-5.01017)">
                <g transform="matrix(1,0,0,1,-166.31,1.60511)">
                    <path d="M209.637,44.264L210.238,19.928L211.726,20.168L211.296,43.211L209.637,44.264Z" style="fill:rgb(95,107,122);"/>
                </g>
                <g transform="matrix(1,0,0,1,-166.31,1.60511)">
                    <ellipse cx="224.73" cy="109.799" rx="7.194" ry="5.841" style="fill:rgb(255,0,90);"/>
                </g>
                <g transform="matrix(1,0,0,1,-166.31,1.60511)">
                    <path d="M264.09,60.165L266.916,59.754L267.63,58.949L271.485,58.458L272.689,60.263L272.347,61.746L271.627,62.154L268.161,62.428L267.168,62.091L263.935,62.428L264.09,60.165Z" style="fill:rgb(111,147,186);"/>
                </g>
                <g transform="matrix(1,0,0,1,-166.31,1.60511)">
                    <path d="M264.734,65.995L267.332,65.856L267.978,65.018L271.784,64.626L272.99,66.393L272.689,67.906L271.722,68.21L268.312,68.446L267.443,67.846L263.351,67.627L264.734,65.995Z" style="fill:rgb(111,147,186);"/>
                </g>
                <g transform="matrix(1,0,0,1,-166.31,1.60511)">
                    <path d="M271.236,58.879L270.603,60.443L271.706,61.766L272.42,60.443L271.236,58.879" style="fill:rgb(95,107,122);"/>
                </g>
                <g transform="matrix(1,0,0,1,-166.31,1.49377)">
                    <path d="M271.511,65.018L270.603,66.536L271.887,68.013L272.42,67.722L272.689,66.536L271.511,65.018Z" style="fill:rgb(95,107,122);"/>
                </g>
                <g transform="matrix(1,0,0,1,-166.31,1.60511)">
                    <path d="M212.301,24.022L212.253,29.271L213.321,30.546L213.234,34.618L217.004,37.13L219.84,37.13L218.552,40.851L231.448,43.086L229.163,37.13L231.712,34.31L222.886,11.393L212.301,24.022Z" style="fill:rgb(95,107,122);"/>
                </g>
                <g transform="matrix(1,0,0,1,-166.31,1.60511)">
                    <path d="M211.208,26.149L211.735,23.198L223.215,9.15L238.617,15.953L238.665,28.893L237.087,28.888L237.453,30.533L236.619,34.585L232.97,37.13L221.672,34.294L220.056,30.731L224.286,27.04L222.165,25.385L222.365,12.525L211.208,26.149Z" style="fill:rgb(179,193,208);"/>
                </g>
                <g transform="matrix(1,0,0,1,-166.31,1.60511)">
                    <path d="M203.687,50L207.326,45.367L215.445,39.344L242.073,44.922L245.989,49.052L249.781,79.942L241.011,106.914L217.147,112.469L208.879,105.784L204.895,79.12L203.687,50Z" style="fill:rgb(179,193,208);"/>
                </g>
                <g transform="matrix(1,0,0,1,-166.31,1.60511)">
                    <path d="M203.913,49.965L213.479,43.086L213.813,81.114L216.962,112.386L208.767,105.852L203.055,78.653L203.913,49.965" style="fill:rgb(161,177,195);"/>
                </g>
                <g transform="matrix(1,0,0,1,-166.31,1.60511)">
                    <path d="M198.767,64L197.033,67.019L200.461,101.456L202.332,102.77L207.922,102.892L212.253,64.906L211.208,62.428L198.767,64Z" style="fill:rgb(179,193,208);"/>
                </g>
                <g transform="matrix(1,0,0,1,-166.31,1.60511)">
                    <path d="M202.929,53.179L197.68,65.548L212.253,63.671L211.208,53.244L209.042,50.505L202.929,53.179Z" style="fill:rgb(132,142,155);"/>
                </g>
                <g transform="matrix(1,0,0,1,-166.31,1.60511)">
                    <path d="M248.112,75.053L265.191,67.701L264.384,58.583L246.109,54.983L248.112,75.053Z" style="fill:rgb(179,193,208);"/>
                </g>
                <g transform="matrix(1,0,0,1,-166.31,1.60511)">
                    <path d="M217.64,47.494L218.536,69.675L246.209,70.461L245.121,51.166L218.734,46.346L217.64,47.494Z" style="fill:rgb(132,142,155);"/>
                </g>
                <g transform="matrix(1,0,0,1,-166.31,1.60511)">
                    <path d="M221.621,88.596L222.938,105.973L239.393,103.155L243.856,86.995L243.029,86.229L221.621,88.596Z" style="fill:rgb(132,142,155);"/>
                </g>
                <g transform="matrix(1,0,0,1,-166.31,1.60511)">
                    <path d="M222.213,54.11L222.131,57.932L238.665,59.732L237.094,55.841L222.213,54.11Z" style="fill:rgb(255,0,90);"/>
                </g>
                <g transform="matrix(1,0,0,1,-166.31,1.60511)">
                    <path d="M239.377,56.314L241.022,60.196L243.438,60.395L241.597,56.604L239.377,56.314Z" style="fill:rgb(255,0,90);"/>
                </g>
                <g transform="matrix(0.743292,-0.279529,0.369453,0.982407,-113.86,66.2778)">
                    <ellipse cx="231.771" cy="19.032" rx="2.216" ry="1.97" style="fill:rgb(255,0,90);"/>
                </g>
                <g transform="matrix(0.211442,-0.0795167,0.149594,0.397784,13.5918,31.1905)">
                    <ellipse cx="231.771" cy="19.032" rx="2.216" ry="1.97" style="fill:rgb(179,193,208);"/>
                </g>
            </g>
        </g>
    </g>
</svg>
